<svg height="496pt" viewBox="0 0 496 496" width="496pt" xmlns="http://www.w3.org/2000/svg"><path d="m176 248c17.648438 0 32-14.351562 32-32h-16c0 8.824219-7.175781 16-16 16s-16-7.175781-16-16h-16c0 17.648438 14.351562 32 32 32zm0 0"/><path d="m144 168c0 4.417969-3.582031 8-8 8s-8-3.582031-8-8 3.582031-8 8-8 8 3.582031 8 8zm0 0"/><path d="m224 168c0 4.417969-3.582031 8-8 8s-8-3.582031-8-8 3.582031-8 8-8 8 3.582031 8 8zm0 0"/><path d="m272 240v63.566406l-40-13.335937v-22.40625c13.6875-11.320313 23.824219-26.726563 28.710938-44.304688 19.816406-2.359375 35.289062-19.078125 35.289062-39.519531v-64c0-66.167969-53.832031-120-120-120s-120 53.832031-120 120v64c0 20.441406 15.472656 37.160156 35.289062 39.519531 4.886719 17.578125 15.023438 32.984375 28.710938 44.304688v22.40625l-81.710938 27.25c-22.898437 7.625-38.289062 28.976562-38.289062 53.113281v77.40625h272v48h224v-203.3125l-52.6875-52.6875zm176 27.3125 20.6875 20.6875h-20.6875zm-209.230469 42.039062-12.195312 60.945313-38.238281-27.320313 37.824218-37.824218zm24.894531-102.71875c.167969-2.199218.335938-4.394531.335938-6.632812v-38.527344c9.289062 3.3125 16 12.113282 16 22.527344 0 10.535156-6.871094 19.414062-16.335938 22.632812zm-191.664062-22.632812c0-10.414062 6.710938-19.214844 16-22.527344v38.527344c0 2.238281.167969 4.433594.335938 6.632812-9.464844-3.21875-16.335938-12.097656-16.335938-22.632812zm17.535156-39.34375c-6.527344 1.070312-12.472656 3.71875-17.535156 7.550781v-32.207031c0-57.34375 46.65625-104 104-104s104 46.65625 104 104v32.207031c-5.0625-3.832031-11.007812-6.480469-17.535156-7.550781-5.023438-18.769531-22.136719-32.65625-42.464844-32.65625-9.464844 0-18.832031 3.128906-26.398438 8.808594l-17.601562 13.191406-17.59375-13.191406c-7.574219-5.679688-16.941406-8.808594-26.40625-8.808594-20.328125 0-37.441406 13.886719-42.464844 32.65625zm14.464844 55.34375v-44c0-15.441406 12.558594-28 28-28 6.023438 0 11.984375 1.992188 16.808594 5.601562l27.191406 20.398438 27.199219-20.398438c4.816406-3.609374 10.777343-5.601562 16.800781-5.601562 15.441406 0 28 12.558594 28 28v44c0 39.703125-32.296875 72-72 72s-72-32.296875-72-72zm72 88c14.40625 0 27.984375-3.550781 40-9.710938v14.398438l-40 40-40-40v-14.398438c12.015625 6.160157 25.59375 9.710938 40 9.710938zm-50.160156 17.152344 37.824218 37.824218-38.238281 27.320313-12.195312-60.945313zm-45.839844 126.847656v-48h-16v48h-48v-61.40625c0-17.242188 10.992188-32.496094 27.351562-37.945312l54.585938-18.191407 16.648438 83.246094 61.414062-43.871094 61.425781 43.871094 16.644531-83.246094 17.929688 5.96875v111.574219zm208 48v-224h144v48h48v176zm0 0"/><path d="m384 464h80v-80h-80zm16-64h48v48h-48zm0 0"/><path d="m304 448h64v16h-64zm0 0"/><path d="m304 416h64v16h-64zm0 0"/><path d="m304 384h64v16h-64zm0 0"/><path d="m304 272h16v16h-16zm0 0"/><path d="m336 272h80v16h-80zm0 0"/><path d="m304 304h112v16h-112zm0 0"/><path d="m448 336h16v16h-16zm0 0"/><path d="m304 336h128v16h-128zm0 0"/><path d="m408 224c48.519531 0 88-39.480469 88-88 0-19.007812-6.121094-36.585938-16.40625-50.984375l14.300781-15.609375-11.796875-10.8125-13.019531 14.199219c-15.839844-15.3125-37.359375-24.792969-61.078125-24.792969-48.519531 0-88 39.480469-88 88s39.480469 88 88 88zm0-160c19.558594 0 37.304688 7.863281 50.289062 20.566406l-59.136718 64.511719-34.160156-27.324219-10 12.492188 45.839843 36.675781 67.65625-73.808594c7.253907 11.230469 11.511719 24.558594 11.511719 38.886719 0 39.703125-32.296875 72-72 72s-72-32.296875-72-72 32.296875-72 72-72zm0 0"/></svg>